{"title":"Two.More.Eggs-Hot.Dip.Sitcom.HDTV.x264","uid":12708444,"size":11006107,"categoryP":"video","categoryS":"tv_shows","magnet":"?xt=urn:btih:ab47a5f5a108d9a1f43891cd025bc71f71c95aec&amp;dn=Two.More.Eggs-Hot.Dip.Sitcom.HDTV.x264&amp;tr=udp%3A%2F%2Ftracker.leechers-paradise.org%3A6969&amp;tr=udp%3A%2F%2Fzer0day.ch%3A1337&amp;tr=udp%3A%2F%2Fopen.demonii.com%3A1337&amp;tr=udp%3A%2F%2Ftracker.coppersurfer.tk%3A6969&amp;tr=udp%3A%2F%2Fexodus.desync.com%3A6969","seeders":0,"leechers":0,"uploader":"TheRival","files":4,"time":1446866016,"description":"Video\r\nID                                       : 1\r\nFormat                                   : AVC\r\nFormat/Info                              : Advanced Video Codec\r\nFormat profile                           :   \r\nFormat settings, CABAC                   : Yes\r\nFormat settings, ReFrames                : 10 frames\r\nCodec ID                                 : avc1\r\nCodec ID/Info                            : Advanced Video Coding\r\nDuration                                 : 1mn 40s\r\nBit rate                                 : 455 Kbps\r\nMaximum bit rate                         : 1 172 Kbps\r\nWidth                                    : 720 pixels\r\nHeight                                   : 404 pixels\r\nDisplay aspect ratio                     : 16:9\r\nFrame rate mode                          : Constant\r\nFrame rate                               : 23.976 fps\r\nColor space                              : YUV\r\nChroma subsampling                       : 4:2:0\r\nBit depth                                : 8 bits\r\nScan type                                : Progressive\r\nBits/(Pixel*Frame)                       : 0.065\r\nStream size                              : 5.44 MiB (79%)\r\nWriting library                          : x264 core 148 r2638 7599210\r\nEncoding settings                        : cabac=1 / ref=10 / deblock=1:1:1 / analyse=0x3:0x113 / me=umh / subme=8 / psy=1 / psy_rd=0.40:0.00 / mixed_ref=1 / me_range=16 / chroma_me=1 / trellis=1 / 8x8dct=1 / cqm=0 / deadzone=21,11 / fast_pskip=1 / chroma_qp_offset=-2 / threads=12 / lookahead_threads=3 / sliced_threads=0 / nr=0 / decimate=1 / interlaced=0 / bluray_compat=0 / constrained_intra=0 / bframes=5 / b_pyramid=2 / b_adapt=2 / b_bias=0 / direct=3 / weightb=1 / open_gop=0 / weightp=2 / keyint=250 / keyint_min=25 / scenecut=40 / intra_refresh=0 / rc_lookahead=50 / rc=crf / mbtree=1 / crf=19.0 / qcomp=0.60 / qpmin=0 / qpmax=69 / qpstep=4 / ip_ratio=1.40 / aq=1:0.60\r\nEncoded date                             : UTC 2015-11-06 16:30:09\r\nTagged date                              : UTC 2015-11-06 16:30:09\r\nColor range                              : Limited\r\nMatrix coefficients                      : BT.709\r\n\r\nAudio\r\nID                                       : 2\r\nFormat                                   : AAC\r\nFormat/Info                              : Advanced Audio Codec\r\nFormat profile                           : LC\r\nCodec ID                                 : 40\r\nDuration                                 : 1mn 40s\r\nBit rate mode                            : Variable\r\nBit rate                                 : 116 Kbps\r\nMaximum bit rate                         : 155 Kbps\r\nChannel(s)                               : 2 channels\r\nChannel positions                        : Front: L R\r\nSampling rate                            : 48.0 KHz\r\nCompression mode                         : Lossy\r\nStream size                              : 1.39 MiB (20%)\r\nLanguage                                 : English\r\nEncoded date                             : UTC 2015-11-06 16:30:09\r\nTagged date                              : UTC 2015-11-06 16:30:09\r\n\r\nText\r\nID                                       : 3\r\nFormat                                   : Timed Text\r\nCodec ID                                 : tx3g\r\nDuration                                 : 1mn 41s\r\nBit rate mode                            : Variable\r\nBit rate                                 : 156 bps\r\nStream size                              : 1.92 KiB (0%)\r\nLanguage                                 : English\r\nEncoded date                             : UTC 2015-11-06 16:30:09\r\nTagged date                              : UTC 2015-11-06 16:30:09","torrent":{"xt":"urn:btih:ab47a5f5a108d9a1f43891cd025bc71f71c95aec","amp;dn":"Two.More.Eggs-Hot.Dip.Sitcom.HDTV.x264","amp;tr":["udp%3A%2F%2Ftracker.leechers-paradise.org%3A6969","udp%3A%2F%2Fzer0day.ch%3A1337","udp%3A%2F%2Fopen.demonii.com%3A1337","udp%3A%2F%2Ftracker.coppersurfer.tk%3A6969","udp%3A%2F%2Fexodus.desync.com%3A6969"],"infoHash":"ab47a5f5a108d9a1f43891cd025bc71f71c95aec","infoHashBuffer":{"type":"Buffer","data":[171,71,165,245,161,8,217,161,244,56,145,205,2,91,199,31,113,201,90,236]},"announce":[],"urlList":[]}}